<svg xmlns="http://www.w3.org/2000/svg" xmlns:xlink="http://www.w3.org/1999/xlink" width="139" height="20" zoomAndPan="magnify" viewBox="0 0 1440 404.99999" preserveAspectRatio="xMidYMid meet" version="1.0"><defs><g/><clipPath id="62412a2675"><path d="M 0 14.238281 L 297.207031 14.238281 L 297.207031 390.761719 L 0 390.761719 Z M 0 14.238281 " clip-rule="nonzero"/></clipPath></defs><g clip-path="url(#62412a2675)"><path fill="#000000" d="M 237.71875 47.953125 L 297.140625 14.238281 L 297.140625 379.335938 L 0.0703125 210.78125 L 0.0703125 142.414062 L 237.71875 277.25 Z M 0.0703125 271.054688 L 0.0703125 390.800781 L 105.601562 330.925781 Z M 0.0703125 14.238281 L 0.0703125 82.605469 L 148.605469 166.882812 L 208.855469 132.695312 Z M 0.0703125 14.238281 " fill-opacity="1" fill-rule="nonzero"/></g><g fill="#000000" fill-opacity="1"><g transform="translate(364.000974, 242.305172)"><g><path d="M 10.34375 -124.847656 C 9.453125 -124.847656 8.738281 -124.3125 8.738281 -123.597656 L 8.738281 -123.242188 C 8.738281 -122.527344 8.917969 -121.636719 9.988281 -120.207031 L 16.410156 -111.828125 L 16.410156 -4.636719 C 16.410156 -1.785156 17.476562 0 20.332031 0 L 45.835938 0 C 46.726562 0 47.085938 -0.535156 47.085938 -1.25 L 47.085938 -2.140625 C 47.085938 -3.390625 46.90625 -4.101562 45.835938 -5.707031 L 18.90625 -41.019531 L 18.90625 -108.4375 L 98.273438 -4.636719 C 100.769531 -1.605469 103.085938 0 105.40625 0 L 112.183594 0 C 115.035156 0 116.105469 -1.785156 116.105469 -4.636719 L 116.105469 -120.207031 C 116.105469 -123.0625 115.035156 -124.847656 112.183594 -124.847656 L 91.851562 -124.847656 C 90.960938 -124.847656 90.601562 -124.3125 90.601562 -123.597656 L 90.601562 -122.707031 C 90.601562 -121.457031 90.601562 -120.566406 91.851562 -119.136719 L 113.609375 -90.601562 L 113.609375 -46.191406 L 113.253906 -46.191406 L 51.542969 -121.101562 C 49.226562 -123.777344 47.621094 -124.847656 44.945312 -124.847656 Z M 10.34375 -124.847656 "/></g></g></g><g fill="#000000" fill-opacity="1"><g transform="translate(496.155915, 242.305172)"><g><path d="M 18.191406 -98.449219 C 15.339844 -98.449219 14.269531 -96.667969 14.269531 -93.8125 L 14.269531 -4.636719 C 14.269531 -1.785156 15.339844 0 18.191406 0 L 88.640625 0 C 91.136719 0 92.5625 -1.785156 93.632812 -4.636719 L 104.691406 -32.28125 C 105.050781 -33.171875 105.40625 -34.066406 104.515625 -34.777344 L 102.375 -36.382812 C 102.015625 -36.742188 101.660156 -36.742188 101.304688 -36.742188 C 100.769531 -36.742188 100.234375 -36.382812 99.519531 -36.027344 L 51.722656 -2.496094 L 44.765625 -2.496094 L 44.765625 -49.046875 L 82.933594 -48.15625 L 82.933594 -52.433594 L 44.765625 -51.542969 L 44.765625 -95.953125 L 51.722656 -95.953125 L 82.398438 -70.09375 C 84.894531 -68.128906 87.925781 -65.8125 90.425781 -65.8125 L 91.496094 -65.8125 C 94.347656 -65.8125 95.417969 -67.59375 95.417969 -70.449219 L 95.417969 -93.8125 C 95.417969 -96.667969 94.347656 -98.449219 91.496094 -98.449219 Z M 18.191406 -98.449219 "/></g></g></g><g fill="#000000" fill-opacity="1"><g transform="translate(604.055703, 242.305172)"><g><path d="M 61.886719 -62.246094 C 47.441406 -66.347656 41.554688 -74.015625 41.554688 -83.113281 C 41.554688 -92.921875 49.9375 -97.738281 59.210938 -97.738281 L 63.316406 -97.738281 L 83.824219 -71.519531 C 85.964844 -68.664062 87.570312 -66.882812 89.53125 -66.882812 L 90.78125 -66.882812 C 92.742188 -66.882812 93.277344 -68.128906 93.277344 -70.09375 L 93.097656 -93.277344 C 93.097656 -96.132812 92.207031 -97.558594 89.175781 -97.914062 L 68.488281 -100.234375 L 58.320312 -100.234375 C 27.644531 -100.234375 11.59375 -88.460938 11.59375 -74.730469 C 11.59375 -58.5 18.191406 -49.582031 50.652344 -39.773438 C 66.523438 -34.957031 68.84375 -29.785156 68.84375 -19.796875 C 68.84375 -9.988281 62.957031 -0.714844 51.1875 -0.714844 L 47.621094 -0.714844 L 21.757812 -35.671875 C 19.617188 -38.523438 18.011719 -40.308594 16.050781 -40.308594 L 14.804688 -40.308594 C 12.839844 -40.308594 12.304688 -39.058594 12.304688 -37.097656 L 12.484375 -4.636719 C 12.484375 -1.785156 13.554688 -0.179688 16.410156 0 L 42.449219 1.785156 L 52.078125 1.785156 C 80.792969 1.785156 98.449219 -7.132812 98.449219 -28.535156 C 98.449219 -47.261719 86.5 -55.289062 61.886719 -62.246094 Z M 61.886719 -62.246094 "/></g></g></g><g fill="#000000" fill-opacity="1"><g transform="translate(711.420462, 242.305172)"><g><path d="M 19.441406 -98.449219 C 16.585938 -98.449219 15.515625 -96.667969 15.515625 -93.8125 L 15.515625 -4.636719 C 15.515625 -1.785156 16.585938 0 19.441406 0 L 42.089844 0 C 44.945312 0 46.015625 -1.785156 46.015625 -4.636719 L 46.015625 -93.8125 C 46.015625 -96.667969 44.945312 -98.449219 42.089844 -98.449219 Z M 14.269531 -124.488281 C 14.269531 -115.394531 21.582031 -108.082031 30.675781 -108.082031 C 39.773438 -108.082031 47.085938 -115.394531 47.085938 -124.488281 C 47.085938 -133.585938 39.773438 -140.898438 30.675781 -140.898438 C 21.582031 -140.898438 14.269531 -133.585938 14.269531 -124.488281 Z M 14.269531 -124.488281 "/></g></g></g><g fill="#000000" fill-opacity="1"><g transform="translate(772.771742, 242.305172)"><g><path d="M 63.671875 -93.8125 C 62.601562 -96.308594 60.28125 -98.449219 57.25 -98.449219 L 48.15625 -98.449219 C 45.65625 -98.449219 43.160156 -96.308594 42.089844 -93.8125 L 2.140625 -4.636719 C 1.25 -2.320312 2.140625 0 4.992188 0 L 30.675781 0 C 34.421875 0 35.847656 -1.960938 34.601562 -4.636719 L 21.402344 -34.066406 L 56.894531 -34.066406 L 70.09375 -4.636719 C 71.339844 -1.960938 73.300781 0 76.511719 0 L 100.769531 0 C 103.621094 0 104.515625 -2.320312 103.621094 -4.636719 Z M 55.824219 -36.5625 L 19.441406 -36.5625 L 37.453125 -77.761719 Z M 55.824219 -36.5625 "/></g></g></g><g fill="#000000" fill-opacity="1"><g transform="translate(878.531363, 242.305172)"><g/></g></g><g fill="#ff0000" fill-opacity="1"><g transform="translate(932.038937, 242.305172)"><g><path d="M 110.398438 -84.003906 L 110.933594 -84.71875 C 111.648438 -107.902344 95.238281 -124.847656 48.332031 -124.847656 L 18.191406 -124.847656 C 15.339844 -124.847656 14.269531 -123.0625 14.269531 -120.207031 L 14.269531 -4.636719 C 14.269531 -1.785156 15.339844 0 18.191406 0 L 57.429688 0 C 101.480469 0 117.535156 -10.878906 117.535156 -33.351562 C 117.535156 -52.433594 95.597656 -62.066406 70.628906 -62.066406 Z M 48.332031 -122.347656 C 74.195312 -122.347656 82.578125 -111.828125 82.578125 -93.992188 C 82.578125 -85.609375 77.226562 -62.246094 53.863281 -62.246094 L 46.550781 -62.246094 L 46.550781 -122.347656 Z M 53.863281 -59.746094 C 73.660156 -59.746094 84.003906 -48.691406 84.003906 -30.855469 C 84.003906 -16.765625 73.660156 -2.496094 53.863281 -2.496094 L 46.550781 -2.496094 L 46.550781 -59.746094 Z M 53.863281 -59.746094 "/></g></g></g><g fill="#ff0000" fill-opacity="1"><g transform="translate(1055.811579, 242.305172)"><g><path d="M 63.671875 -93.8125 C 62.601562 -96.308594 60.28125 -98.449219 57.25 -98.449219 L 48.15625 -98.449219 C 45.65625 -98.449219 43.160156 -96.308594 42.089844 -93.8125 L 2.140625 -4.636719 C 1.25 -2.320312 2.140625 0 4.992188 0 L 30.675781 0 C 34.421875 0 35.847656 -1.960938 34.601562 -4.636719 L 21.402344 -34.066406 L 56.894531 -34.066406 L 70.09375 -4.636719 C 71.339844 -1.960938 73.300781 0 76.511719 0 L 100.769531 0 C 103.621094 0 104.515625 -2.320312 103.621094 -4.636719 Z M 55.824219 -36.5625 L 19.441406 -36.5625 L 37.453125 -77.761719 Z M 55.824219 -36.5625 "/></g></g></g><g fill="#ff0000" fill-opacity="1"><g transform="translate(1161.5712, 242.305172)"><g><path d="M 93.8125 -93.8125 C 93.8125 -96.667969 92.742188 -98.449219 89.890625 -98.449219 L 7.492188 -98.449219 C 4.636719 -98.449219 3.566406 -96.667969 3.566406 -93.8125 L 3.566406 -61.886719 C 3.566406 -59.925781 4.101562 -58.675781 6.0625 -58.675781 L 7.132812 -58.675781 C 8.738281 -58.675781 10.523438 -60.996094 12.128906 -63.316406 L 33.53125 -95.953125 L 34.957031 -95.953125 L 34.957031 -4.636719 C 34.957031 -1.785156 36.027344 0 38.878906 0 L 58.5 0 C 61.351562 0 62.421875 -1.785156 62.421875 -4.636719 L 62.421875 -95.953125 L 63.851562 -95.953125 L 85.25 -63.316406 C 86.855469 -60.996094 88.640625 -58.675781 90.246094 -58.675781 L 91.316406 -58.675781 C 93.277344 -58.675781 93.8125 -59.925781 93.8125 -61.886719 Z M 93.8125 -93.8125 "/></g></g></g><g fill="#ff0000" fill-opacity="1"><g transform="translate(1258.948523, 242.305172)"><g><path d="M 19.441406 -98.449219 C 16.585938 -98.449219 15.515625 -96.667969 15.515625 -93.8125 L 15.515625 -4.636719 C 15.515625 -1.785156 16.585938 0 19.441406 0 L 42.089844 0 C 44.945312 0 46.015625 -1.785156 46.015625 -4.636719 L 46.015625 -93.8125 C 46.015625 -96.667969 44.945312 -98.449219 42.089844 -98.449219 Z M 14.269531 -124.488281 C 14.269531 -115.394531 21.582031 -108.082031 30.675781 -108.082031 C 39.773438 -108.082031 47.085938 -115.394531 47.085938 -124.488281 C 47.085938 -133.585938 39.773438 -140.898438 30.675781 -140.898438 C 21.582031 -140.898438 14.269531 -133.585938 14.269531 -124.488281 Z M 14.269531 -124.488281 "/></g></g></g><g fill="#ff0000" fill-opacity="1"><g transform="translate(1320.299803, 242.305172)"><g><path d="M 14.269531 -4.636719 C 14.269531 -1.785156 15.339844 0 18.191406 0 L 40.84375 0 C 43.695312 0 44.765625 -1.785156 44.765625 -4.636719 L 44.765625 -93.8125 C 44.765625 -96.667969 43.695312 -98.449219 40.84375 -98.449219 L 18.191406 -98.449219 C 15.339844 -98.449219 14.269531 -96.667969 14.269531 -93.8125 Z M 110.222656 -93.8125 C 112.359375 -95.953125 111.46875 -98.449219 107.902344 -98.449219 L 72.230469 -98.449219 C 69.199219 -98.449219 68.128906 -96.132812 69.914062 -93.8125 L 87.925781 -70.09375 C 70.804688 -49.582031 66.167969 -46.015625 48.511719 -46.015625 L 48.511719 -43.695312 L 78.472656 -4.636719 C 80.613281 -2.140625 83.289062 0 86.5 0 L 112.894531 0 C 115.929688 0 117 -2.320312 115.214844 -4.636719 L 77.40625 -54.039062 Z M 110.222656 -93.8125 "/></g></g></g></svg>